<svg width="6" height="6" viewBox="0 0 6 6" fill="none" xmlns="http://www.w3.org/2000/svg">
<path d="M1.06542 4.44231C1.06542 4.14615 1.20561 3.87692 1.51402 3.66154C1.73832 3.5 1.93458 3.33846 2.13084 3.20385C2.15888 3.20385 2.15887 3.20385 2.15887 3.17692C2.15887 3.15 2.15888 3.15 2.13084 3.12308C2.10281 3.09616 2.1028 3.06923 2.04673 3.01538C1.96261 3.04231 1.76636 3.09616 1.42991 3.25769C1.17757 3.36539 0.981305 3.41923 0.785043 3.41923C0.252333 3.41923 0 3.15 0 2.63846C0 2.12692 0.280372 1.88462 0.813083 1.88462C1.03738 1.88462 1.42991 2.01923 1.96262 2.26154L2.04673 2.28846H2.07477C2.13084 2.23462 2.15887 2.20769 2.15887 2.18077V2.1C2.15887 2.07308 2.13084 2.04615 2.1028 2.01923C1.87851 1.85769 1.6542 1.66923 1.45794 1.50769C1.2056 1.26539 1.06542 1.05 1.06542 0.780772C1.06542 0.565387 1.14953 0.376926 1.31775 0.24231C1.48598 0.107695 1.68224 0.0269247 1.90654 0.0269247C2.43925 0.0269247 2.74766 0.565384 2.85981 1.66923H3.08411L3.11215 1.58846C3.11215 1.50769 3.14019 1.26538 3.2243 0.807692C3.30841 0.35 3.50467 0.107692 3.86916 0H4.06542C4.28972 0 4.48598 0.0807701 4.65421 0.215385C4.82243 0.350001 4.90654 0.538462 4.90654 0.753847C4.90654 1.05 4.54205 1.48077 3.84112 1.99231L3.81309 2.01923V2.04616C3.84112 2.07308 3.84112 2.12692 3.8972 2.15385L3.92523 2.18077H3.95327C4.62617 1.91154 5.01869 1.77692 5.18692 1.77692C5.71963 1.77692 6 2.01923 6 2.53077C6 3.06923 5.71963 3.31154 5.18692 3.31154C4.99066 3.31154 4.59813 3.17693 4.00934 2.93462C3.98131 2.93462 3.98131 2.93462 3.92523 2.90769L3.8972 2.93462L3.75701 3.17692L3.78505 3.20385C4.48598 3.68846 4.85047 4.11923 4.85047 4.44231C4.85047 4.65769 4.76635 4.84616 4.59813 5.00769C4.42991 5.16923 4.23364 5.25 4.00934 5.25C3.53271 5.25 3.25233 4.95385 3.16822 4.36154C3.11215 3.87692 3.08411 3.63462 3.08411 3.60769L3.05607 3.58077H2.85981L2.83178 3.60769C2.83178 3.63462 2.80374 3.90385 2.74766 4.36154C2.66355 4.95385 2.38317 5.25 1.90654 5.25C1.68224 5.25 1.48598 5.16923 1.31775 5.00769C1.14953 4.84616 1.06542 4.65769 1.06542 4.44231Z" fill="#FE5E7B"/>
</svg>
