<svg width="12" height="12" viewBox="0 0 12 12" fill="none" xmlns="http://www.w3.org/2000/svg">
<path d="M5.83334 2.91667C5.67863 2.91667 5.53025 2.97812 5.42086 3.08752C5.31146 3.19692 5.25 3.34529 5.25 3.5V5.83333C5.25 5.98804 5.31146 6.13642 5.42086 6.24581C5.53025 6.35521 5.67863 6.41667 5.83334 6.41667C5.98805 6.41667 6.13642 6.35521 6.24581 6.24581C6.35521 6.13642 6.41667 5.98804 6.41667 5.83333V3.5C6.41667 3.34529 6.35521 3.19692 6.24581 3.08752C6.13642 2.97812 5.98805 2.91667 5.83334 2.91667ZM6.37 7.945C6.35723 7.90783 6.33958 7.87252 6.3175 7.84L6.2475 7.7525C6.16547 7.67156 6.0613 7.61673 5.94814 7.59492C5.83498 7.57312 5.7179 7.58533 5.61167 7.63C5.54098 7.65954 5.47587 7.70097 5.41917 7.7525C5.36511 7.80701 5.32233 7.87165 5.2933 7.94272C5.26427 8.01379 5.24956 8.0899 5.25 8.16667C5.25092 8.2429 5.26678 8.3182 5.29667 8.38833C5.32287 8.46072 5.36467 8.52646 5.4191 8.5809C5.47354 8.63534 5.53928 8.67713 5.61167 8.70333C5.68149 8.73419 5.75699 8.75014 5.83334 8.75014C5.90968 8.75014 5.98518 8.73419 6.055 8.70333C6.12739 8.67713 6.19313 8.63534 6.24757 8.5809C6.30201 8.52646 6.3438 8.46072 6.37 8.38833C6.39989 8.3182 6.41575 8.2429 6.41667 8.16667C6.41953 8.12783 6.41953 8.08884 6.41667 8.05C6.40663 8.0128 6.39088 7.97738 6.37 7.945ZM5.83334 0C4.67961 0 3.5518 0.342119 2.59251 0.983094C1.63322 1.62407 0.88555 2.53511 0.444039 3.60101C0.00252749 4.66692 -0.112992 5.8398 0.112088 6.97136C0.337169 8.10292 0.89274 9.14232 1.70855 9.95812C2.52435 10.7739 3.56375 11.3295 4.69531 11.5546C5.82687 11.7797 6.99975 11.6641 8.06566 11.2226C9.13156 10.7811 10.0426 10.0334 10.6836 9.07416C11.3245 8.11487 11.6667 6.98706 11.6667 5.83333C11.6667 5.06729 11.5158 4.30875 11.2226 3.60101C10.9295 2.89328 10.4998 2.25022 9.95813 1.70854C9.41645 1.16687 8.77339 0.737189 8.06566 0.444036C7.35792 0.150884 6.59938 0 5.83334 0ZM5.83334 10.5C4.91036 10.5 4.0081 10.2263 3.24067 9.71352C2.47325 9.20074 1.87511 8.47191 1.5219 7.61919C1.16869 6.76647 1.07627 5.82816 1.25634 4.92291C1.4364 4.01767 1.88086 3.18615 2.5335 2.5335C3.18615 1.88086 4.01767 1.4364 4.92291 1.25634C5.82816 1.07627 6.76647 1.16869 7.61919 1.5219C8.47191 1.8751 9.20075 2.47324 9.71353 3.24067C10.2263 4.0081 10.5 4.91035 10.5 5.83333C10.5 7.07101 10.0083 8.258 9.13317 9.13317C8.258 10.0083 7.07101 10.5 5.83334 10.5Z" fill="#FFBDBD"/>
</svg>
