<svg width="73" height="19" viewBox="0 0 73 19" fill="none" xmlns="http://www.w3.org/2000/svg">
<path d="M9.42194 0.559448C4.4965 0.559448 0.512451 4.5295 0.512451 9.43762H9.42194V0.559448Z" fill="#FFDD2A"/>
<path d="M0.512451 9.43762C0.512451 14.3457 4.4965 18.3157 9.42194 18.3157V9.43762H0.512451Z" fill="#45EC9C"/>
<path d="M9.37151 0.559448C14.2969 0.559448 18.281 4.5295 18.281 9.43762H9.37151V0.559448Z" fill="#FE5E7B"/>
<path d="M18.2642 9.43762C13.3388 9.43762 9.35469 13.4076 9.35469 18.3157H18.2642V9.43762Z" fill="#63B4FC"/>
<path d="M20.9034 11.3472C20.9034 10.2919 21.2733 9.38731 22.0297 8.6335C22.7862 7.8797 23.6771 7.51117 24.7362 7.51117C25.8121 7.51117 26.7198 7.8797 27.4763 8.6335C28.2327 9.38731 28.6194 10.2919 28.6194 11.364C28.6194 12.4193 28.2327 13.3071 27.4763 14.0777C26.7198 14.8315 25.8121 15.2167 24.753 15.2167C23.6771 15.2167 22.7694 14.8482 22.0129 14.0777C21.2733 13.3238 20.9034 12.4193 20.9034 11.3472ZM23.0215 11.364C23.0215 11.8497 23.1896 12.2518 23.5258 12.5868C23.862 12.9218 24.2655 13.0893 24.753 13.0893C25.2237 13.0893 25.6271 12.9218 25.9802 12.5868C26.3164 12.2518 26.5013 11.8497 26.5013 11.3807C26.5013 10.9117 26.3332 10.5096 25.9802 10.1746C25.6271 9.83959 25.2237 9.67208 24.753 9.67208C24.2823 9.67208 23.8789 9.83959 23.5427 10.1746C23.2064 10.5096 23.0215 10.8949 23.0215 11.364Z" fill="#4A4A4A"/>
<path d="M33.3767 7.52795C34.4526 7.52795 35.3604 7.91323 36.1 8.66703C36.8397 9.42083 37.2263 10.3254 37.2263 11.3975C37.2263 12.4528 36.8397 13.3574 36.0832 14.1112C35.3267 14.865 34.419 15.2335 33.3599 15.2335C32.7716 15.2335 32.2 15.0995 31.6285 14.8315V18.4497H29.5103V11.1462C29.5103 10.8614 29.5776 10.5097 29.7289 10.1076C30.0147 9.33708 30.4854 8.70053 31.141 8.24825C31.7966 7.74572 32.553 7.52795 33.3767 7.52795ZM31.6285 11.3807C31.6285 11.8665 31.7966 12.2685 32.1328 12.5868C32.469 12.9218 32.8724 13.0893 33.3599 13.0893C33.8306 13.0893 34.2341 12.9218 34.5871 12.5868C34.9233 12.2518 35.1082 11.8498 35.1082 11.3807C35.1082 10.9117 34.9401 10.5097 34.5871 10.1746C34.2509 9.83961 33.8306 9.6721 33.3599 9.6721C32.8892 9.6721 32.4858 9.83961 32.1328 10.1746C31.7798 10.5097 31.6285 10.9117 31.6285 11.3807Z" fill="#4A4A4A"/>
<path d="M38.1004 4.74725H40.2185V7.42743H41.2608V9.55482H40.2185V12.7375C40.2185 12.8045 40.2522 12.8715 40.3194 12.9553C40.3866 13.0391 40.4539 13.0726 40.5211 13.0726H41.3953V15.2H40.3866C40.2522 15.2 40.0841 15.1664 39.8991 15.1162C39.025 14.8649 38.4535 14.2786 38.2013 13.4076C38.1509 13.2066 38.1172 13.0223 38.1172 12.8548V4.74725H38.1004Z" fill="#4A4A4A"/>
<path d="M42.7065 5.86965C42.7065 5.68538 42.7905 5.51787 42.9754 5.38386C43.1099 5.28335 43.2276 5.18284 43.3453 5.09908C43.3621 5.09908 43.3621 5.09908 43.3621 5.08233C43.3621 5.06558 43.3621 5.06558 43.3453 5.04883C43.3285 5.03207 43.3285 5.01532 43.2948 4.98182C43.2444 4.99857 43.1267 5.03207 42.925 5.13258C42.7737 5.19959 42.6561 5.23309 42.5384 5.23309C42.219 5.23309 42.0677 5.06558 42.0677 4.7473C42.0677 4.42902 42.2358 4.27826 42.5552 4.27826C42.6897 4.27826 42.925 4.36202 43.2444 4.51278L43.2948 4.52953H43.3117C43.3453 4.49603 43.3621 4.47928 43.3621 4.46252V4.41227C43.3621 4.39552 43.3453 4.37877 43.3285 4.36201C43.194 4.2615 43.0595 4.14425 42.9418 4.04374C42.7905 3.89297 42.7065 3.75896 42.7065 3.59145C42.7065 3.45743 42.7569 3.34017 42.8578 3.25642C42.9586 3.17266 43.0763 3.1224 43.2108 3.1224C43.5302 3.1224 43.7151 3.45743 43.7823 4.14424H43.9168L43.9336 4.09399C43.9336 4.04374 43.9505 3.89297 44.0009 3.6082C44.0513 3.32342 44.169 3.17266 44.3875 3.10565H44.5052C44.6397 3.10565 44.7574 3.15591 44.8582 3.23966C44.9591 3.32342 45.0095 3.44068 45.0095 3.57469C45.0095 3.75896 44.791 4.02699 44.3707 4.34526L44.3539 4.36201V4.37877C44.3707 4.39552 44.3707 4.42902 44.4043 4.44577L44.4211 4.46252H44.438C44.8414 4.29501 45.0768 4.21125 45.1776 4.21125C45.497 4.21125 45.6651 4.36202 45.6651 4.68029C45.6651 5.01532 45.497 5.16609 45.1776 5.16609C45.0599 5.16609 44.8246 5.08233 44.4716 4.93157C44.4548 4.93157 44.4548 4.93156 44.4211 4.91481L44.4043 4.93157L44.3203 5.08233L44.3371 5.09908C44.7574 5.40061 44.9759 5.66863 44.9759 5.86965C44.9759 6.00366 44.9255 6.12092 44.8246 6.22143C44.7237 6.32194 44.6061 6.37219 44.4716 6.37219C44.1858 6.37219 44.0177 6.18793 43.9673 5.81939C43.9336 5.51787 43.9168 5.3671 43.9168 5.35035L43.9 5.3336H43.7823L43.7655 5.35035C43.7655 5.3671 43.7487 5.53462 43.7151 5.81939C43.6647 6.18793 43.4966 6.37219 43.2108 6.37219C43.0763 6.37219 42.9586 6.32194 42.8578 6.22143C42.7569 6.12092 42.7065 6.00366 42.7065 5.86965Z" fill="#FE5E7B"/>
<path d="M44.9422 7.46094H42.8241V15.2167H44.9422V7.46094Z" fill="#4A4A4A"/>
<path d="M45.8332 11.4477C45.8332 10.3924 46.203 9.48783 46.9595 8.73403C47.716 7.98022 48.6069 7.61169 49.666 7.61169C50.7418 7.61169 51.6496 7.98022 52.4061 8.73403C53.1625 9.48783 53.5492 10.3924 53.5492 11.4645C53.5492 12.5198 53.1625 13.4076 52.4061 14.1782C51.6496 14.932 50.7418 15.3173 49.6828 15.3173C48.6069 15.3173 47.6992 14.9487 46.9427 14.1782C46.203 13.4244 45.8332 12.5198 45.8332 11.4477ZM47.9513 11.4645C47.9513 11.9503 48.1194 12.3523 48.4556 12.6873C48.7918 13.0223 49.1953 13.1899 49.6828 13.1899C50.1535 13.1899 50.5569 13.0223 50.9099 12.6873C51.2462 12.3523 51.4311 11.9503 51.4311 11.4812C51.4311 11.0122 51.263 10.6102 50.9099 10.2751C50.5569 9.94011 50.1535 9.7726 49.6828 9.7726C49.2121 9.7726 48.8086 9.94011 48.4724 10.2751C48.1362 10.6102 47.9513 10.9954 47.9513 11.4645Z" fill="#4A4A4A"/>
<path d="M58.1552 7.47772C58.9117 7.47772 59.6009 7.67874 60.2229 8.09752C60.8449 8.51629 61.2988 9.06908 61.6013 9.75588C61.8031 10.2249 61.9039 10.6269 61.9039 10.9787V15.2H59.7858V11.1127C59.7858 11.0122 59.769 10.9285 59.7354 10.8615C59.6345 10.5097 59.4496 10.2082 59.1638 9.9904C58.8781 9.75588 58.5419 9.63862 58.172 9.63862C57.8022 9.63862 57.4828 9.75588 57.197 9.97365C56.9113 10.1914 56.7263 10.4762 56.6255 10.828C56.6087 10.895 56.5919 10.9285 56.5919 10.9285C56.5919 10.9285 56.575 11.0122 56.5582 11.1797V15.2H54.4401V11.0625C54.4401 10.962 54.4569 10.8112 54.4906 10.6437C54.6419 9.75588 55.0621 9.00208 55.7682 8.39904C56.4574 7.77924 57.2643 7.47772 58.1552 7.47772Z" fill="#4A4A4A"/>
<path d="M68.6449 4.69702C69.5022 4.69702 70.2923 4.96504 71.0152 5.50108C71.738 6.03712 72.2255 6.72392 72.4777 7.54472C72.629 8.03051 72.713 8.39903 72.713 8.6838V15.2335H70.5949V11.029H66.7117V15.2335H64.5936V8.66705C64.5936 8.38228 64.6776 7.997 64.8458 7.49447C65.1147 6.67366 65.6022 6.00361 66.3251 5.48433C67.0143 4.96504 67.7876 4.69702 68.6449 4.69702ZM68.6281 6.82442C68.0902 6.82442 67.6363 7.04219 67.2664 7.46097C66.8798 7.8965 66.6949 8.36553 66.6949 8.90157H70.5781C70.5781 8.36553 70.3932 7.87975 70.0065 7.46097C69.6199 7.04219 69.1492 6.82442 68.6281 6.82442Z" fill="#4A4A4A"/>
</svg>
